Coordinates
version=1
nRows=54
nColumns=12
inDegrees=yes

Units are S.I. units (second, meters, Newtons, ...)
Angles are in degrees

endheader
time	SC_y	SC_z	SC_x	AC_y	AC_z	AC_x	GH_y	GH_z	GH_yy	EL_x	PS_y
       0.0               -40.4          9.668          25.45          39.08         -7.633          6.129         -68.25          15.64         -43.21          123.4          63.33
   0.01935               -40.4          9.672          25.45          39.08          -7.63          6.129         -68.26          15.65          -43.2          123.4          63.33
    0.0387              -40.39          9.675          25.46          39.09         -7.627          6.128         -68.26          15.66         -43.19          123.4          63.34
   0.05805              -40.39          9.679          25.46          39.09         -7.625          6.127         -68.27          15.67         -43.18          123.4          63.34
    0.0774              -40.39          9.683          25.46           39.1         -7.622          6.126         -68.28          15.68         -43.17          123.4          63.34
   0.09674              -40.39          9.687          25.47           39.1         -7.618          6.126         -68.29          15.69         -43.16          123.4          63.34
    0.1161              -40.38          9.691          25.47          39.11         -7.615          6.125         -68.29           15.7         -43.15          123.3          63.35
    0.1354              -40.38          9.696          25.47          39.12         -7.611          6.124          -68.3          15.71         -43.14          123.3          63.35
    0.1548              -40.38          9.701          25.48          39.12         -7.607          6.123         -68.31          15.73         -43.13          123.3          63.35
    0.1741              -40.38          9.707          25.48          39.13         -7.603          6.121         -68.32          15.74         -43.11          123.3          63.36
    0.1935              -40.37          9.712          25.49          39.14         -7.598           6.12         -68.33          15.76          -43.1          123.3          63.36
    0.2128              -40.37          9.719          25.49          39.14         -7.593          6.119         -68.34          15.77         -43.08          123.3          63.37
    0.2322              -40.36          9.725           25.5          39.15         -7.588          6.118         -68.35          15.79         -43.07          123.3          63.37
    0.2515              -40.36          9.733           25.5          39.16         -7.582          6.116         -68.37          15.81         -43.05          123.2          63.38
    0.2709              -40.35          9.741          25.51          39.17         -7.576          6.114         -68.38          15.83         -43.03          123.2          63.38
    0.2902              -40.35          9.749          25.52          39.18         -7.569          6.113         -68.39          15.85         -43.01          123.2          63.39
    0.3096              -40.34          9.759          25.52          39.19         -7.562          6.111         -68.41          15.88         -42.98          123.2          63.39
    0.3289              -40.34          9.769          25.53          39.21         -7.554          6.108         -68.43           15.9         -42.96          123.2           63.4
    0.3483              -40.33           9.78          25.54          39.22         -7.545          6.106         -68.45          15.93         -42.93          123.1          63.41
    0.3676              -40.32          9.792          25.55          39.24         -7.536          6.104         -68.47          15.96          -42.9          123.1          63.42
     0.387              -40.31          9.806          25.56          39.25         -7.525          6.101         -68.49          15.99         -42.87          123.1          63.43
    0.4063               -40.3           9.82          25.57          39.27         -7.514          6.098         -68.52          16.03         -42.83          123.0          63.44
    0.4257              -40.29          9.837          25.59          39.29         -7.501          6.094         -68.55          16.07         -42.79          123.0          63.45
     0.445              -40.28          9.855           25.6          39.32         -7.487          6.091         -68.58          16.12         -42.75          123.0          63.46
    0.4644              -40.27          9.875          25.62          39.34         -7.471          6.086         -68.62          16.17          -42.7          122.9          63.48
    0.4837              -40.26          9.897          25.64          39.37         -7.454          6.082         -68.65          16.23         -42.64          122.9          63.49
    0.5031              -40.24          9.922          25.66           39.4         -7.434          6.076          -68.7          16.29         -42.58          122.8          63.51
    0.5224              -40.22           9.95          25.68          39.44         -7.412          6.071         -68.75          16.36         -42.51          122.8          63.53
    0.5418               -40.2          9.982           25.7          39.48         -7.387          6.064          -68.8          16.44         -42.43          122.7          63.55
    0.5611              -40.18          10.02          25.73          39.52         -7.359          6.056         -68.87          16.54         -42.34          122.6          63.58
    0.5805              -40.16          10.06          25.77          39.58         -7.327          6.048         -68.94          16.64         -42.24          122.5          63.61
    0.5998              -40.13          10.11           25.8          39.64          -7.29          6.038         -69.02          16.76         -42.12          122.4          63.64
    0.6192              -40.09          10.16          25.85           39.7         -7.247          6.026         -69.12           16.9         -41.99          122.3          63.68
    0.6385              -40.05          10.22           25.9          39.78         -7.197          6.013         -69.23          17.06         -41.83          122.1          63.72
    0.6579              -40.01           10.3          25.96          39.88         -7.139          5.998         -69.36          17.25         -41.64          122.0          63.77
    0.6772              -39.95          10.39          26.03          39.99         -7.071          5.979         -69.52          17.48         -41.43          121.8          63.84
    0.6966              -39.89          10.49          26.11          40.12         -6.989          5.958          -69.7          17.74         -41.17          121.5          63.91
    0.7159              -39.81          10.62          26.21          40.28         -6.892          5.931         -69.92          18.06         -40.86          121.2           64.0
    0.7353              -39.72          10.77          26.33          40.47         -6.774            5.9         -70.18          18.45         -40.49          120.9           64.1
    0.7546              -39.61          10.95          26.48           40.7         -6.629          5.861         -70.51          18.92         -40.03          120.5          64.23
     0.774              -39.46          11.18          26.67          40.99         -6.451          5.814         -70.91           19.5         -39.46          120.0          64.39
    0.7933              -39.29          11.46          26.89          41.35         -6.229          5.755         -71.41          20.22         -38.76          119.3          64.59
    0.8127              -39.07          11.82          27.18           41.8         -5.949           5.68         -72.04          21.14         -37.87          118.5          64.84
     0.832              -38.79          12.27          27.55          42.38         -5.594          5.585         -72.84           22.3         -36.75          117.5          65.16
    0.8514              -38.43          12.86          28.02          43.11         -5.139          5.463         -73.86          23.78          -35.3          116.2          65.57
    0.8707              -37.97           13.6          28.62          44.06         -4.555          5.307         -75.17          25.69         -33.45          114.5           66.1
    0.8901              -37.38          14.55          29.38          45.26         -3.809          5.108         -76.85          28.12         -31.09          112.3          66.77
    0.9094              -36.63          15.75          30.35          46.78         -2.871          4.857         -78.96          31.18         -28.12          109.6          67.61
    0.9288              -35.73          17.21          31.52          48.63         -1.728          4.552         -81.53          34.91         -24.49          106.2          68.64
    0.9481              -34.68          18.91          32.88          50.77        -0.4025          4.198          -84.5          39.23          -20.3          102.4          69.83
    0.9674              -33.55          20.74          34.36          53.09          1.032          3.815         -87.73          43.91         -15.75          98.23          71.12
    0.9868              -32.41          22.57          35.83          55.41          2.467          3.432         -90.95          48.59          -11.2          94.06          72.41
     1.006              -31.37          24.27           37.2          57.55          3.792          3.078         -93.93          52.91         -7.003          90.21           73.6
     1.025              -30.46          25.73          38.37           59.4          4.935          2.772          -96.5          56.64         -3.381          86.89          74.63
